<?xml version="1.0" standalone="no"?>
<!DOCTYPE svg PUBLIC "-//W3C//DTD SVG 20010904//EN"
 "http://www.w3.org/TR/2001/REC-SVG-20010904/DTD/svg10.dtd">
<svg version="1.0" xmlns="http://www.w3.org/2000/svg"
 width="140.000000pt" height="70.000000pt" viewBox="0 0 1280.000000 640.000000"
 preserveAspectRatio="xMidYMid meet">
<metadata>
Created by potrace 1.15, written by Peter Selinger 2001-2017
</metadata>
<g transform="translate(0.000000,640.000000) scale(0.100000,-0.100000)"
fill="#000000" stroke="none">
<path d="M1156 4403 c-39 -124 -61 -150 -199 -233 -124 -74 -148 -109 -149
-213 l-1 -77 -82 -40 c-108 -52 -174 -113 -265 -246 -40 -60 -89 -128 -108
-152 -37 -45 -149 -123 -269 -188 -40 -22 -73 -41 -73 -44 0 -11 230 -110 315
-136 78 -23 108 -27 220 -27 206 0 385 51 663 191 l132 66 178 -91 c562 -290
766 -341 1667 -418 472 -40 655 -63 874 -111 169 -36 208 -49 424 -141 212
-90 297 -116 532 -162 955 -189 2323 -211 3780 -61 105 11 219 23 254 26 l64
7 -6 -32 c-4 -18 -10 -80 -13 -139 -6 -95 -4 -113 13 -153 24 -55 68 -79 140
-79 67 0 138 37 216 113 77 75 206 246 237 315 l23 51 66 10 c36 6 120 18 186
26 451 59 890 161 1369 320 472 156 760 284 1016 453 244 160 357 266 415 388
24 50 27 66 21 118 -3 33 -8 61 -10 64 -3 2 -28 -3 -57 -12 -29 -8 -54 -14
-56 -13 -1 2 -3 53 -4 115 -1 99 -3 112 -19 112 -46 0 -440 43 -560 61 -74 11
-251 43 -393 70 -551 105 -658 119 -942 126 -189 4 -280 1 -515 -18 -390 -32
-716 -31 -1235 5 -214 15 -496 29 -625 33 -413 10 -1125 -24 -1920 -93 -96 -8
-422 -46 -725 -84 -764 -96 -893 -106 -1630 -130 -669 -22 -898 -43 -1330
-120 -461 -83 -530 -90 -853 -90 l-213 0 40 53 c56 73 81 133 81 192 0 155
-157 275 -522 400 -72 25 -131 45 -132 45 -1 0 -10 -26 -20 -57z m11474 -528
c0 -63 -4 -105 -10 -105 -6 0 -10 42 -10 105 0 63 4 105 10 105 6 0 10 -42 10
-105z m-60 -20 c0 -63 -4 -105 -10 -105 -11 0 -14 192 -3 203 12 13 13 7 13
-98z m-60 -25 c0 -60 -4 -100 -10 -100 -6 0 -10 40 -10 100 0 60 4 100 10 100
6 0 10 -40 10 -100z m-60 -20 c0 -60 -4 -100 -10 -100 -6 0 -10 40 -10 100 0
60 4 100 10 100 6 0 10 -40 10 -100z m-70 -114 c-7 -7 -10 19 -10 85 0 124 14
138 18 18 2 -54 -1 -96 -8 -103z m-50 79 c0 -57 -4 -95 -10 -95 -11 0 -14 172
-3 183 12 13 13 7 13 -88z m-60 -10 c0 -50 -4 -85 -10 -85 -6 0 -10 35 -10 85
0 50 4 85 10 85 6 0 10 -35 10 -85z m-660 0 c0 -43 -4 -75 -10 -75 -6 0 -10
32 -10 75 0 43 4 75 10 75 6 0 10 -32 10 -75z m60 5 c0 -40 -4 -70 -10 -70 -6
0 -10 30 -10 70 0 40 4 70 10 70 6 0 10 -30 10 -70z m60 5 c0 -37 -4 -65 -10
-65 -6 0 -10 28 -10 65 0 37 4 65 10 65 6 0 10 -28 10 -65z m60 -1 c0 -41 -4
-63 -10 -59 -18 11 -12 125 7 125 2 0 3 -30 3 -66z m420 -14 c0 -47 -4 -80
-10 -80 -6 0 -10 33 -10 80 0 47 4 80 10 80 6 0 10 -33 10 -80z m-660 -5 c0
-43 -4 -75 -10 -75 -6 0 -10 32 -10 75 0 43 4 75 10 75 6 0 10 -32 10 -75z
m300 15 c0 -33 -4 -60 -10 -60 -6 0 -10 27 -10 60 0 33 4 60 10 60 6 0 10 -27
10 -60z m47 -32 c-2 -18 -4 -4 -4 32 0 36 2 50 4 33 2 -18 2 -48 0 -65z m73
32 c0 -41 -4 -60 -12 -60 -9 0 -12 17 -11 57 2 70 1 63 13 63 6 0 10 -27 10
-60z m60 -5 c0 -37 -4 -65 -10 -65 -6 0 -10 28 -10 65 0 37 4 65 10 65 6 0 10
-28 10 -65z m60 0 c0 -37 -4 -65 -10 -65 -6 0 -10 28 -10 65 0 37 4 65 10 65
6 0 10 -28 10 -65z m60 -5 c0 -40 -4 -70 -10 -70 -6 0 -10 30 -10 70 0 40 4
70 10 70 6 0 10 -30 10 -70z m-660 -14 c0 -41 -4 -78 -10 -81 -6 -4 -10 23
-10 74 0 47 4 81 10 81 6 0 10 -31 10 -74z m-60 -11 c0 -43 -4 -75 -10 -75 -6
0 -10 32 -10 75 0 43 4 75 10 75 6 0 10 -32 10 -75z m-62 -7 c-2 -40 -7 -73
-13 -73 -5 0 -11 33 -13 73 -2 60 0 72 13 72 13 0 15 -12 13 -72z m-71 -45
c-2 -21 -4 -6 -4 32 0 39 2 55 4 38 2 -18 2 -50 0 -70z m-49 30 c-4 -81 -28
-85 -28 -4 0 48 3 61 15 61 13 0 15 -11 13 -57z m-68 -13 c0 -27 -4 -50 -10
-50 -5 0 -10 23 -10 50 0 28 5 50 10 50 6 0 10 -22 10 -50z m-60 -5 c0 -25 -4
-45 -10 -45 -11 0 -14 73 -3 83 11 12 13 8 13 -38z m-60 -10 c0 -19 -4 -35
-10 -35 -11 0 -14 53 -3 63 11 12 13 8 13 -28z m-60 -15 c0 -16 -4 -30 -10
-30 -5 0 -10 14 -10 30 0 17 5 30 10 30 6 0 10 -13 10 -30z m-60 -15 c0 -14
-4 -25 -10 -25 -5 0 -10 11 -10 25 0 14 5 25 10 25 6 0 10 -11 10 -25z m-60
-15 c0 -14 -9 -21 -37 -26 -21 -3 -76 -15 -122 -25 -46 -11 -86 -18 -88 -15
-4 3 220 83 240 85 4 1 7 -8 7 -19z"/>
</g>
</svg>
